# xmcd
#
# Track frame offsets:
#	150
#	70749
#	96784
#	145691
#	183971
#	216227
#
# Disc length: 3353 seconds
#
# Revision: 1
# Processed by: cddbd v1.5.2PL0 Copyright (c) Steve Scherf et al.
# Submitted via: audiograbber 1.83.01
#
DISCID=500d1706
DTITLE=Grateful Dead - 76-09-30 Mershon Auditorium, Ohio State Uni, Columbus OH
DYEAR=1900
DGENRE=
TTITLE0=Crazy Fingers
TTITLE1=It's All Over Now
TTITLE2=Scarlet Begonias
TTITLE3=Lazy Lightning > Supplication
TTITLE4=It Must Have Been The Roses
TTITLE5=Samson and Delilah
EXTD=
EXTT0=
EXTT1=
EXTT2=
EXTT3=
EXTT4=
EXTT5=
PLAYORDER=
